M48
METRIC,LZ,000.000
;FILE_FORMAT=3:3
;TYPE=PLATED
;Layer: PTH_Through
;EasyEDA v6.5.42, 2024-06-08 10:03:42
;2a0a793ee1f445049542d68d0598b523,181136881d82463cbfe9aea6f2478185,10
;Gerber Generator version 0.2
;Holesize 1 = 0.889 mm
T01C0.889
;Holesize 2 = 0.901 mm
T02C0.901
;Holesize 3 = 0.915 mm
T03C0.915
;Holesize 4 = 1.000 mm
T04C1.000
;Holesize 5 = 1.016 mm
T05C1.016
;Holesize 6 = 1.101 mm
T06C1.101
;Holesize 7 = 1.200 mm
T07C1.200
;Holesize 8 = 1.600 mm
T08C1.600
%
G05
G90
T01
X037972Y009653
X037972Y012193
X037972Y014733
X037972Y017273
X037972Y019813
X037972Y022353
X037972Y024893
X037972Y027433
T02
X005715Y-002921
X000635Y-002921
X036957Y-014986
X031877Y-014986
T03
X003938Y004505
X003938Y007005
X003938Y009505
X003938Y012005
X018582Y-005207
X023582Y-005207
T04
X000635Y-010922
X005715Y-010922
T05
X033147Y009398
X010287Y027178
X010287Y024638
X010287Y022098
X010287Y019558
X010287Y017018
X010287Y014478
X010287Y011938
X010287Y009398
X033147Y027178
X033147Y024638
X033147Y022098
X033147Y019558
X033147Y017018
X033147Y014478
X033147Y011938
T06
X034544Y-003215
X034544Y-008215
T07
X018805Y-014478
X020515Y-014478
X022225Y-014478
X023935Y-014478
X025645Y-014478
T08
X011556Y-014165
X011556Y-000565
M30
