G04 Layer: BottomLayer*
G04 EasyEDA v6.5.42, 2024-06-08 10:03:42*
G04 2a0a793ee1f445049542d68d0598b523,181136881d82463cbfe9aea6f2478185,10*
G04 Gerber Generator version 0.2*
G04 Scale: 100 percent, Rotated: No, Reflected: No *
G04 Dimensions in millimeters *
G04 leading zeros omitted , absolute positions ,4 integer and 5 decimal *
%FSLAX45Y45*%
%MOMM*%

%ADD10C,2.0000*%
%ADD11C,1.0000*%
%ADD12C,1.5000*%
%ADD13C,2.4000*%
%ADD14R,1.5748X1.5748*%
%ADD15C,1.5748*%
%ADD16R,1.5240X1.5240*%
%ADD17C,1.5240*%
%ADD18C,1.6000*%
%ADD19C,1.8000*%
%ADD20R,3.2918X1.8288*%
%ADD21R,0.0195X1.8288*%

%LPD*%
G36*
X-237642Y-1929841D02*
G01*
X-241554Y-1929079D01*
X-244856Y-1926843D01*
X-250545Y-1921154D01*
X-252780Y-1917852D01*
X-253542Y-1913940D01*
X-253542Y-1870659D01*
X-252780Y-1866798D01*
X-250545Y-1863496D01*
X-229260Y-1842160D01*
X-228600Y-1840484D01*
X-253542Y324154D01*
X-253542Y3634282D01*
X-252780Y3638194D01*
X-250545Y3641445D01*
X-247294Y3643680D01*
X-243382Y3644442D01*
X4104081Y3644442D01*
X4107992Y3643680D01*
X4111244Y3641445D01*
X4113479Y3638194D01*
X4114241Y3634282D01*
X4114241Y-1901342D01*
X4113479Y-1905254D01*
X4111244Y-1908556D01*
X4092956Y-1926843D01*
X4089654Y-1929079D01*
X4085742Y-1929841D01*
G37*

%LPC*%
G36*
X-63500Y-1892807D02*
G01*
X-48107Y-1891842D01*
X-32969Y-1889099D01*
X-18288Y-1884527D01*
X-4267Y-1878177D01*
X8940Y-1870202D01*
X21031Y-1860702D01*
X31902Y-1849831D01*
X41402Y-1837740D01*
X49377Y-1824532D01*
X55727Y-1810512D01*
X60299Y-1795830D01*
X63042Y-1780692D01*
X64008Y-1765300D01*
X63042Y-1749907D01*
X60299Y-1734769D01*
X55727Y-1720088D01*
X49377Y-1706067D01*
X41402Y-1692859D01*
X31902Y-1680768D01*
X21031Y-1669897D01*
X8940Y-1660398D01*
X-4267Y-1652422D01*
X-18288Y-1646072D01*
X-32969Y-1641500D01*
X-48107Y-1638757D01*
X-63500Y-1637792D01*
X-78892Y-1638757D01*
X-94030Y-1641500D01*
X-108712Y-1646072D01*
X-122732Y-1652422D01*
X-135940Y-1660398D01*
X-148031Y-1669897D01*
X-158902Y-1680768D01*
X-168402Y-1692859D01*
X-176377Y-1706067D01*
X-182727Y-1720088D01*
X-187299Y-1734769D01*
X-190042Y-1749907D01*
X-191008Y-1765300D01*
X-190042Y-1780692D01*
X-187299Y-1795830D01*
X-182727Y-1810512D01*
X-176377Y-1824532D01*
X-168402Y-1837740D01*
X-158902Y-1849831D01*
X-148031Y-1860702D01*
X-135940Y-1870202D01*
X-122732Y-1878177D01*
X-108712Y-1884527D01*
X-94030Y-1889099D01*
X-78892Y-1891842D01*
G37*
G36*
X3962400Y-1880107D02*
G01*
X3977792Y-1879142D01*
X3992930Y-1876399D01*
X4007612Y-1871827D01*
X4021632Y-1865477D01*
X4034840Y-1857502D01*
X4046931Y-1848002D01*
X4057802Y-1837131D01*
X4067301Y-1825040D01*
X4075277Y-1811832D01*
X4081627Y-1797812D01*
X4086199Y-1783130D01*
X4088942Y-1767992D01*
X4089908Y-1752600D01*
X4088942Y-1737207D01*
X4086199Y-1722069D01*
X4081627Y-1707388D01*
X4075277Y-1693367D01*
X4067301Y-1680159D01*
X4057802Y-1668068D01*
X4046931Y-1657197D01*
X4034840Y-1647698D01*
X4021632Y-1639722D01*
X4007612Y-1633372D01*
X3992930Y-1628800D01*
X3977792Y-1626057D01*
X3962400Y-1625092D01*
X3947007Y-1626057D01*
X3931869Y-1628800D01*
X3917187Y-1633372D01*
X3903167Y-1639722D01*
X3889959Y-1647698D01*
X3877868Y-1657197D01*
X3866997Y-1668068D01*
X3857498Y-1680159D01*
X3849522Y-1693367D01*
X3843172Y-1707388D01*
X3838600Y-1722069D01*
X3835857Y-1737207D01*
X3834892Y-1752600D01*
X3835857Y-1767992D01*
X3838600Y-1783130D01*
X3843172Y-1797812D01*
X3849522Y-1811832D01*
X3857498Y-1825040D01*
X3866997Y-1837131D01*
X3877868Y-1848002D01*
X3889959Y-1857502D01*
X3903167Y-1865477D01*
X3917187Y-1871827D01*
X3931869Y-1876399D01*
X3947007Y-1879142D01*
G37*
G36*
X546201Y-1865782D02*
G01*
X1434896Y-1865782D01*
X1442669Y-1865528D01*
X1450238Y-1864817D01*
X1457756Y-1863699D01*
X1465173Y-1862074D01*
X1472488Y-1860042D01*
X1479702Y-1857552D01*
X1486712Y-1854657D01*
X1493570Y-1851355D01*
X1500174Y-1847596D01*
X1506575Y-1843481D01*
X1512671Y-1838960D01*
X1518513Y-1834083D01*
X1524203Y-1828749D01*
X1797405Y-1555546D01*
X1800453Y-1552143D01*
X1803857Y-1549603D01*
X1808022Y-1548688D01*
X1883714Y-1548638D01*
X1893824Y-1547825D01*
X1897176Y-1547317D01*
X1906727Y-1545234D01*
X1910283Y-1544218D01*
X1919224Y-1540967D01*
X1922881Y-1539392D01*
X1931060Y-1535125D01*
X1934718Y-1532890D01*
X1941982Y-1527810D01*
X1945589Y-1524914D01*
X1951888Y-1519072D01*
X1955292Y-1515567D01*
X1958187Y-1512011D01*
X1961591Y-1509369D01*
X1965807Y-1508353D01*
X1970074Y-1509166D01*
X1973580Y-1511706D01*
X1981352Y-1520342D01*
X1991664Y-1529029D01*
X2002993Y-1536293D01*
X2015236Y-1541932D01*
X2028088Y-1545945D01*
X2041398Y-1548180D01*
X2054860Y-1548638D01*
X2068271Y-1547266D01*
X2081377Y-1544167D01*
X2093975Y-1539341D01*
X2105761Y-1532839D01*
X2116632Y-1524863D01*
X2126335Y-1515465D01*
X2128977Y-1512112D01*
X2132380Y-1509369D01*
X2136597Y-1508252D01*
X2140915Y-1509064D01*
X2144471Y-1511604D01*
X2152396Y-1520342D01*
X2162657Y-1529029D01*
X2174036Y-1536293D01*
X2178659Y-1538427D01*
X2178659Y-1491640D01*
X2157171Y-1491640D01*
X2153513Y-1490980D01*
X2150364Y-1489049D01*
X2148078Y-1486103D01*
X2147062Y-1482496D01*
X2147366Y-1478838D01*
X2150364Y-1467916D01*
X2152142Y-1454556D01*
X2152142Y-1441094D01*
X2150364Y-1427734D01*
X2147366Y-1416812D01*
X2147062Y-1413103D01*
X2148078Y-1409547D01*
X2150364Y-1406601D01*
X2153513Y-1404620D01*
X2157171Y-1403959D01*
X2178659Y-1403959D01*
X2178659Y-1357172D01*
X2174036Y-1359357D01*
X2162657Y-1366570D01*
X2152396Y-1375308D01*
X2145131Y-1383334D01*
X2141829Y-1385722D01*
X2137918Y-1386636D01*
X2133904Y-1385976D01*
X2130501Y-1383792D01*
X2128215Y-1380490D01*
X2127402Y-1376527D01*
X2127351Y-1070965D01*
X2126538Y-1062126D01*
X2126132Y-1059688D01*
X2123998Y-1051052D01*
X2123236Y-1048715D01*
X2119833Y-1040485D01*
X2118715Y-1038301D01*
X2114092Y-1030681D01*
X2107031Y-1021842D01*
X1937105Y-851865D01*
X1934870Y-848563D01*
X1934108Y-844651D01*
X1934108Y-592531D01*
X1934819Y-588873D01*
X1936750Y-585724D01*
X1938324Y-583996D01*
X1946046Y-572719D01*
X1952193Y-560578D01*
X1956663Y-547674D01*
X1959406Y-534314D01*
X1960321Y-520700D01*
X1959406Y-507085D01*
X1956663Y-493725D01*
X1952193Y-480872D01*
X1946046Y-468680D01*
X1938324Y-457454D01*
X1936750Y-455676D01*
X1934819Y-452526D01*
X1934108Y-448868D01*
X1934057Y-306171D01*
X1933244Y-297332D01*
X1932838Y-294894D01*
X1930704Y-286258D01*
X1929942Y-283921D01*
X1926539Y-275691D01*
X1925421Y-273507D01*
X1920798Y-265887D01*
X1913737Y-257048D01*
X1657756Y-1066D01*
X1648917Y5994D01*
X1641297Y10617D01*
X1639112Y11734D01*
X1630883Y15138D01*
X1628546Y15900D01*
X1619910Y18034D01*
X1617472Y18440D01*
X1608632Y19253D01*
X1285646Y19304D01*
X1282446Y19812D01*
X1279601Y21285D01*
X1277315Y23622D01*
X1269644Y34391D01*
X1258773Y46634D01*
X1246581Y57505D01*
X1233220Y67005D01*
X1218895Y74879D01*
X1203807Y81178D01*
X1188059Y85699D01*
X1171956Y88442D01*
X1155598Y89357D01*
X1139240Y88442D01*
X1123137Y85699D01*
X1107389Y81178D01*
X1092301Y74879D01*
X1077976Y67005D01*
X1064615Y57505D01*
X1052423Y46634D01*
X1041552Y34391D01*
X1032052Y21082D01*
X1024178Y6756D01*
X1017879Y-8382D01*
X1013358Y-24079D01*
X1010615Y-40233D01*
X1009700Y-56540D01*
X1010615Y-72898D01*
X1013358Y-89001D01*
X1017879Y-104749D01*
X1024178Y-119837D01*
X1032052Y-134162D01*
X1041552Y-147523D01*
X1052423Y-159715D01*
X1064615Y-170586D01*
X1077976Y-180086D01*
X1092301Y-188010D01*
X1107389Y-194259D01*
X1123137Y-198780D01*
X1139240Y-201523D01*
X1155598Y-202438D01*
X1171956Y-201523D01*
X1188059Y-198780D01*
X1203807Y-194259D01*
X1218895Y-188010D01*
X1233220Y-180086D01*
X1246581Y-170586D01*
X1258773Y-159715D01*
X1269644Y-147523D01*
X1277264Y-136804D01*
X1279550Y-134467D01*
X1282395Y-132994D01*
X1285544Y-132486D01*
X1570329Y-132486D01*
X1574241Y-133248D01*
X1577543Y-135483D01*
X1779320Y-337261D01*
X1781556Y-340563D01*
X1782318Y-344474D01*
X1782318Y-448970D01*
X1781759Y-452272D01*
X1780133Y-455269D01*
X1774037Y-462940D01*
X1767128Y-474675D01*
X1761794Y-487222D01*
X1758188Y-500380D01*
X1756359Y-513892D01*
X1756359Y-527507D01*
X1758188Y-541020D01*
X1761794Y-554177D01*
X1767128Y-566724D01*
X1774037Y-578459D01*
X1780133Y-586181D01*
X1781759Y-589127D01*
X1782318Y-592429D01*
X1782368Y-882954D01*
X1783181Y-891794D01*
X1783588Y-894232D01*
X1785721Y-902868D01*
X1786483Y-905205D01*
X1789887Y-913434D01*
X1791004Y-915619D01*
X1795627Y-923239D01*
X1802688Y-932078D01*
X1972614Y-1102055D01*
X1974850Y-1105357D01*
X1975612Y-1109268D01*
X1975612Y-1376375D01*
X1974748Y-1380388D01*
X1972411Y-1383792D01*
X1968906Y-1385925D01*
X1964842Y-1386535D01*
X1960829Y-1385417D01*
X1957628Y-1382877D01*
X1951888Y-1376527D01*
X1945589Y-1370685D01*
X1941982Y-1367790D01*
X1934718Y-1362710D01*
X1931060Y-1360474D01*
X1922881Y-1356207D01*
X1919224Y-1354632D01*
X1910283Y-1351381D01*
X1906727Y-1350365D01*
X1897125Y-1348282D01*
X1893824Y-1347774D01*
X1883714Y-1346962D01*
X1750009Y-1346911D01*
X1746046Y-1346098D01*
X1731314Y-1342440D01*
X1716227Y-1340612D01*
X1700987Y-1340612D01*
X1685899Y-1342440D01*
X1671167Y-1346098D01*
X1656943Y-1351483D01*
X1643481Y-1358544D01*
X1630984Y-1367180D01*
X1619351Y-1377492D01*
X1385874Y-1610969D01*
X1382572Y-1613154D01*
X1378712Y-1613966D01*
X602386Y-1613966D01*
X598525Y-1613154D01*
X595223Y-1610969D01*
X192328Y-1208074D01*
X190144Y-1204772D01*
X189331Y-1200912D01*
X189433Y-336600D01*
X190246Y-332587D01*
X193954Y-323951D01*
X196392Y-316839D01*
X198475Y-309524D01*
X200050Y-302107D01*
X201168Y-294589D01*
X201879Y-286969D01*
X202133Y-279247D01*
X202133Y261112D01*
X202895Y265023D01*
X205079Y268325D01*
X258419Y321614D01*
X261670Y323799D01*
X265582Y324612D01*
X393395Y324612D01*
X408889Y325526D01*
X423824Y328269D01*
X438353Y332790D01*
X452221Y339039D01*
X465378Y347014D01*
X469493Y348386D01*
X475792Y349097D01*
X481228Y351028D01*
X486156Y354076D01*
X490220Y358190D01*
X493318Y363067D01*
X495198Y368554D01*
X495909Y374904D01*
X497332Y379018D01*
X505206Y392023D01*
X511403Y405841D01*
X515975Y420370D01*
X518668Y435305D01*
X519633Y450494D01*
X518668Y465683D01*
X515975Y480618D01*
X511403Y495147D01*
X505206Y509016D01*
X497332Y522020D01*
X495909Y526135D01*
X495198Y532434D01*
X493318Y537921D01*
X490220Y542798D01*
X486156Y546912D01*
X481228Y549960D01*
X475792Y551891D01*
X469544Y552602D01*
X465429Y554024D01*
X452221Y561949D01*
X438353Y568198D01*
X423824Y572719D01*
X408889Y575462D01*
X393395Y576427D01*
X209397Y576427D01*
X201625Y576173D01*
X194056Y575513D01*
X186537Y574344D01*
X179070Y572770D01*
X171754Y570687D01*
X164592Y568248D01*
X157530Y565302D01*
X150723Y562000D01*
X144068Y558241D01*
X137718Y554126D01*
X131572Y549605D01*
X125730Y544728D01*
X120091Y539445D01*
X-12700Y406654D01*
X-18034Y400964D01*
X-22910Y395122D01*
X-27432Y389026D01*
X-31546Y382625D01*
X-35255Y376021D01*
X-38608Y369163D01*
X-41503Y362153D01*
X-43992Y354939D01*
X-46024Y347624D01*
X-47650Y340207D01*
X-48768Y332689D01*
X-49479Y325069D01*
X-49682Y317347D01*
X-49682Y-234899D01*
X-50546Y-238912D01*
X-54254Y-247548D01*
X-56692Y-254660D01*
X-58724Y-261975D01*
X-60350Y-269392D01*
X-61467Y-276910D01*
X-62179Y-284480D01*
X-62382Y-292252D01*
X-62433Y-1257096D01*
X-62230Y-1264869D01*
X-61518Y-1272438D01*
X-60401Y-1279956D01*
X-58775Y-1287373D01*
X-56743Y-1294688D01*
X-54254Y-1301902D01*
X-51358Y-1308912D01*
X-48056Y-1315770D01*
X-44297Y-1322374D01*
X-40182Y-1328775D01*
X-35661Y-1334871D01*
X-30784Y-1340713D01*
X-25450Y-1346403D01*
X456895Y-1828749D01*
X462584Y-1834083D01*
X468426Y-1838960D01*
X474522Y-1843481D01*
X480923Y-1847596D01*
X487527Y-1851355D01*
X494385Y-1854657D01*
X501396Y-1857552D01*
X508609Y-1860042D01*
X515924Y-1862074D01*
X523341Y-1863699D01*
X530860Y-1864817D01*
X538429Y-1865528D01*
G37*
G36*
X3688435Y-1614271D02*
G01*
X3702964Y-1614271D01*
X3717442Y-1612442D01*
X3731514Y-1608836D01*
X3745026Y-1603451D01*
X3757828Y-1596440D01*
X3769563Y-1587906D01*
X3780180Y-1577949D01*
X3789476Y-1566722D01*
X3797249Y-1554429D01*
X3803446Y-1541272D01*
X3806698Y-1531366D01*
X3808729Y-1527759D01*
X3813860Y-1521917D01*
X3821176Y-1510944D01*
X3827018Y-1499108D01*
X3831234Y-1486611D01*
X3833825Y-1473657D01*
X3834739Y-1460195D01*
X3834739Y-508355D01*
X3833825Y-494842D01*
X3831234Y-481888D01*
X3827018Y-469392D01*
X3821176Y-457555D01*
X3813860Y-446582D01*
X3804920Y-436422D01*
X3618890Y-250393D01*
X3608730Y-241452D01*
X3597757Y-234137D01*
X3585921Y-228295D01*
X3573424Y-224078D01*
X3560470Y-221488D01*
X3546957Y-220624D01*
X3513937Y-220624D01*
X3509619Y-219608D01*
X3497072Y-213715D01*
X3483203Y-209245D01*
X3468928Y-206502D01*
X3454400Y-205587D01*
X3439871Y-206502D01*
X3425596Y-209245D01*
X3411728Y-213715D01*
X3398570Y-219913D01*
X3386328Y-227736D01*
X3383686Y-228904D01*
X3380841Y-229311D01*
X2680055Y-229311D01*
X2666542Y-230174D01*
X2653588Y-232765D01*
X2641092Y-236982D01*
X2629255Y-242824D01*
X2618282Y-250190D01*
X2608122Y-259079D01*
X2476601Y-390601D01*
X2473299Y-392836D01*
X2469388Y-393598D01*
X2465527Y-392836D01*
X2462225Y-390601D01*
X2460040Y-387299D01*
X2459228Y-383438D01*
X2459228Y2251405D01*
X2458364Y2264918D01*
X2455773Y2277872D01*
X2451557Y2290368D01*
X2445715Y2302205D01*
X2438400Y2313178D01*
X2429459Y2323338D01*
X1963826Y2788970D01*
X1953666Y2797911D01*
X1942693Y2805226D01*
X1930857Y2811068D01*
X1918360Y2815285D01*
X1905406Y2817876D01*
X1891893Y2818739D01*
X1223264Y2818739D01*
X1219911Y2819349D01*
X1216914Y2820974D01*
X1213510Y2825343D01*
X1210716Y2828137D01*
X1208532Y2831439D01*
X1207719Y2835300D01*
X1208532Y2839212D01*
X1210716Y2842514D01*
X1214018Y2844698D01*
X1217879Y2845460D01*
X3125520Y2845460D01*
X3129432Y2844698D01*
X3132683Y2842514D01*
X3134918Y2839212D01*
X3135680Y2835300D01*
X3134918Y2831439D01*
X3132683Y2828137D01*
X3129889Y2825343D01*
X3126841Y2820466D01*
X3124911Y2814980D01*
X3124200Y2808681D01*
X3124200Y2626918D01*
X3124911Y2620619D01*
X3126841Y2615133D01*
X3129889Y2610256D01*
X3134004Y2606141D01*
X3138881Y2603042D01*
X3144367Y2601163D01*
X3146755Y2600909D01*
X3150717Y2599588D01*
X3153867Y2596743D01*
X3155543Y2592882D01*
X3155543Y2588666D01*
X3153867Y2584856D01*
X3150717Y2582011D01*
X3146755Y2580690D01*
X3144367Y2580436D01*
X3138881Y2578506D01*
X3134004Y2575458D01*
X3129889Y2571343D01*
X3126841Y2566466D01*
X3124911Y2560980D01*
X3124200Y2554681D01*
X3124200Y2372918D01*
X3124911Y2366619D01*
X3126841Y2361133D01*
X3129889Y2356256D01*
X3134004Y2352141D01*
X3138881Y2349042D01*
X3144367Y2347163D01*
X3146755Y2346909D01*
X3150717Y2345588D01*
X3153867Y2342743D01*
X3155543Y2338882D01*
X3155543Y2334666D01*
X3153867Y2330856D01*
X3150717Y2328011D01*
X3146755Y2326690D01*
X3144367Y2326436D01*
X3138881Y2324506D01*
X3134004Y2321458D01*
X3129889Y2317343D01*
X3126841Y2312466D01*
X3124911Y2306980D01*
X3124200Y2300681D01*
X3124200Y2295906D01*
X3123438Y2292045D01*
X3121253Y2288743D01*
X3117951Y2286508D01*
X3114040Y2285746D01*
X3058007Y2285695D01*
X3049168Y2284882D01*
X3046730Y2284476D01*
X3038094Y2282342D01*
X3035757Y2281580D01*
X3027527Y2278176D01*
X3025343Y2277059D01*
X3017723Y2272436D01*
X3008884Y2265375D01*
X2789224Y2045716D01*
X2782163Y2036876D01*
X2777540Y2029256D01*
X2776423Y2027072D01*
X2773019Y2018842D01*
X2772257Y2016506D01*
X2770124Y2007870D01*
X2769717Y2005431D01*
X2768904Y1996592D01*
X2768904Y873709D01*
X2769717Y864869D01*
X2770124Y862431D01*
X2772257Y853795D01*
X2773019Y851458D01*
X2776423Y843229D01*
X2777540Y841044D01*
X2782163Y833424D01*
X2789224Y824585D01*
X3034284Y579526D01*
X3043123Y572465D01*
X3050743Y567842D01*
X3052927Y566724D01*
X3061157Y563321D01*
X3063494Y562559D01*
X3072130Y560425D01*
X3074568Y560019D01*
X3083407Y559206D01*
X3876090Y559206D01*
X3884929Y560019D01*
X3887368Y560425D01*
X3896004Y562559D01*
X3898341Y563321D01*
X3906570Y566724D01*
X3908755Y567842D01*
X3916375Y572465D01*
X3925214Y579526D01*
X4005173Y659485D01*
X4012234Y668324D01*
X4016857Y675944D01*
X4017975Y678129D01*
X4021378Y686358D01*
X4022140Y688695D01*
X4024274Y697331D01*
X4024680Y699770D01*
X4025493Y708609D01*
X4025493Y1577492D01*
X4024680Y1586331D01*
X4024274Y1588770D01*
X4022140Y1597406D01*
X4021378Y1599742D01*
X4017975Y1607972D01*
X4016857Y1610156D01*
X4012234Y1617776D01*
X4005173Y1626616D01*
X3904386Y1727454D01*
X3902303Y1730451D01*
X3901440Y1733956D01*
X3900982Y1740916D01*
X3898290Y1754327D01*
X3893921Y1767281D01*
X3887876Y1779574D01*
X3880256Y1790954D01*
X3871214Y1801215D01*
X3860952Y1810257D01*
X3849573Y1817878D01*
X3837279Y1823923D01*
X3824325Y1828292D01*
X3810914Y1830984D01*
X3797249Y1831898D01*
X3783584Y1830984D01*
X3770172Y1828292D01*
X3757218Y1823923D01*
X3744925Y1817878D01*
X3733546Y1810257D01*
X3723284Y1801215D01*
X3714242Y1790954D01*
X3706622Y1779574D01*
X3700576Y1767281D01*
X3696208Y1754327D01*
X3693515Y1740916D01*
X3692601Y1727250D01*
X3693515Y1713585D01*
X3694226Y1709928D01*
X3694176Y1705610D01*
X3692347Y1701749D01*
X3689096Y1698955D01*
X3684930Y1697786D01*
X3680714Y1698447D01*
X3677107Y1700733D01*
X3620465Y1757324D01*
X3611626Y1764385D01*
X3604006Y1769008D01*
X3601821Y1770125D01*
X3591255Y1774291D01*
X3582619Y1776425D01*
X3580180Y1776831D01*
X3571341Y1777644D01*
X3515360Y1777695D01*
X3511499Y1778457D01*
X3508197Y1780692D01*
X3505962Y1783994D01*
X3505200Y1787855D01*
X3505200Y1792681D01*
X3504488Y1798980D01*
X3502609Y1804466D01*
X3499510Y1809343D01*
X3495395Y1813458D01*
X3490518Y1816506D01*
X3485032Y1818436D01*
X3482695Y1818690D01*
X3478682Y1820011D01*
X3475583Y1822856D01*
X3473856Y1826666D01*
X3473856Y1830882D01*
X3475583Y1834743D01*
X3478682Y1837588D01*
X3482695Y1838909D01*
X3485032Y1839163D01*
X3490518Y1841042D01*
X3495395Y1844141D01*
X3499510Y1848256D01*
X3502609Y1853133D01*
X3504488Y1858619D01*
X3505200Y1864918D01*
X3505200Y1895144D01*
X3505962Y1899005D01*
X3508197Y1902307D01*
X3511499Y1904542D01*
X3515360Y1905304D01*
X3721709Y1905304D01*
X3725265Y1904644D01*
X3728415Y1902764D01*
X3733546Y1898243D01*
X3744925Y1890623D01*
X3757218Y1884578D01*
X3770172Y1880209D01*
X3783584Y1877517D01*
X3797249Y1876602D01*
X3810914Y1877517D01*
X3824325Y1880209D01*
X3837279Y1884578D01*
X3849573Y1890623D01*
X3860952Y1898243D01*
X3871214Y1907286D01*
X3880256Y1917547D01*
X3887876Y1928926D01*
X3893921Y1941220D01*
X3898290Y1954174D01*
X3900982Y1967585D01*
X3901897Y1981250D01*
X3900982Y1994916D01*
X3898290Y2008327D01*
X3893921Y2021281D01*
X3887876Y2033574D01*
X3880256Y2044954D01*
X3871214Y2055215D01*
X3860952Y2064257D01*
X3849573Y2071878D01*
X3837279Y2077923D01*
X3824325Y2082292D01*
X3810914Y2084984D01*
X3797249Y2085898D01*
X3783584Y2084984D01*
X3770172Y2082292D01*
X3757218Y2077923D01*
X3744925Y2071878D01*
X3733546Y2064257D01*
X3728262Y2059635D01*
X3725164Y2057755D01*
X3721557Y2057095D01*
X3509060Y2057095D01*
X3505708Y2057654D01*
X3502710Y2059330D01*
X3499510Y2063343D01*
X3495395Y2067458D01*
X3490518Y2070506D01*
X3485032Y2072436D01*
X3482695Y2072690D01*
X3478682Y2074011D01*
X3475583Y2076856D01*
X3473856Y2080666D01*
X3473856Y2084882D01*
X3475583Y2088743D01*
X3478682Y2091588D01*
X3482695Y2092909D01*
X3485032Y2093163D01*
X3490518Y2095042D01*
X3495395Y2098141D01*
X3499510Y2102256D01*
X3502609Y2107133D01*
X3504488Y2112619D01*
X3505200Y2118918D01*
X3505200Y2300681D01*
X3504488Y2306980D01*
X3502609Y2312466D01*
X3499510Y2317343D01*
X3495395Y2321458D01*
X3490518Y2324506D01*
X3485032Y2326436D01*
X3482695Y2326690D01*
X3478682Y2328011D01*
X3475583Y2330856D01*
X3473856Y2334666D01*
X3473856Y2338882D01*
X3475583Y2342743D01*
X3478682Y2345588D01*
X3482695Y2346909D01*
X3485032Y2347163D01*
X3490518Y2349042D01*
X3495395Y2352141D01*
X3499510Y2356256D01*
X3502609Y2361133D01*
X3504488Y2366619D01*
X3505200Y2372918D01*
X3505200Y2377744D01*
X3505962Y2381605D01*
X3508197Y2384907D01*
X3511499Y2387092D01*
X3515360Y2387904D01*
X3520338Y2387904D01*
X3524250Y2387092D01*
X3527551Y2384907D01*
X3691991Y2220468D01*
X3693769Y2218080D01*
X3694785Y2215235D01*
X3696208Y2208174D01*
X3700576Y2195220D01*
X3706622Y2182926D01*
X3714242Y2171547D01*
X3723284Y2161286D01*
X3733546Y2152243D01*
X3744925Y2144623D01*
X3757218Y2138578D01*
X3770172Y2134209D01*
X3783584Y2131517D01*
X3797249Y2130602D01*
X3810914Y2131517D01*
X3824325Y2134209D01*
X3837279Y2138578D01*
X3849573Y2144623D01*
X3860952Y2152243D01*
X3871214Y2161286D01*
X3880256Y2171547D01*
X3887876Y2182926D01*
X3893921Y2195220D01*
X3898290Y2208174D01*
X3900982Y2221585D01*
X3901897Y2235250D01*
X3900982Y2248916D01*
X3898290Y2262327D01*
X3893921Y2275281D01*
X3887876Y2287574D01*
X3880256Y2298954D01*
X3871214Y2309215D01*
X3860952Y2318258D01*
X3849573Y2325878D01*
X3837279Y2331923D01*
X3824325Y2336292D01*
X3810914Y2338984D01*
X3797249Y2339898D01*
X3792474Y2339543D01*
X3788257Y2340203D01*
X3784650Y2342540D01*
X3753713Y2373426D01*
X3751529Y2376728D01*
X3750767Y2380589D01*
X3751529Y2384501D01*
X3751529Y2443530D01*
X3692499Y2443530D01*
X3688587Y2442768D01*
X3684727Y2443530D01*
X3681425Y2445715D01*
X3607765Y2519324D01*
X3598926Y2526385D01*
X3591306Y2531008D01*
X3589121Y2532126D01*
X3578555Y2536291D01*
X3569919Y2538425D01*
X3567480Y2538831D01*
X3558641Y2539644D01*
X3515360Y2539695D01*
X3511499Y2540457D01*
X3508197Y2542692D01*
X3505962Y2545994D01*
X3505200Y2549855D01*
X3505200Y2554681D01*
X3504488Y2560980D01*
X3502609Y2566466D01*
X3499510Y2571343D01*
X3495395Y2575458D01*
X3490518Y2578506D01*
X3485032Y2580436D01*
X3482695Y2580690D01*
X3478682Y2582011D01*
X3475583Y2584856D01*
X3473856Y2588666D01*
X3473856Y2592882D01*
X3475583Y2596743D01*
X3478682Y2599588D01*
X3482695Y2600909D01*
X3485032Y2601163D01*
X3490518Y2603042D01*
X3495395Y2606141D01*
X3499510Y2610256D01*
X3502609Y2615133D01*
X3504488Y2620619D01*
X3505200Y2626918D01*
X3505200Y2808681D01*
X3504488Y2814980D01*
X3502609Y2820466D01*
X3499510Y2825343D01*
X3496716Y2828137D01*
X3494532Y2831439D01*
X3493719Y2835300D01*
X3494532Y2839212D01*
X3496716Y2842514D01*
X3500018Y2844698D01*
X3503879Y2845460D01*
X3548126Y2845460D01*
X3551986Y2844698D01*
X3555288Y2842514D01*
X3705504Y2692298D01*
X3706774Y2690774D01*
X3714242Y2679547D01*
X3723284Y2669286D01*
X3733546Y2660243D01*
X3744925Y2652623D01*
X3757218Y2646578D01*
X3770172Y2642209D01*
X3783584Y2639517D01*
X3797249Y2638602D01*
X3810914Y2639517D01*
X3824325Y2642209D01*
X3837279Y2646578D01*
X3849573Y2652623D01*
X3860952Y2660243D01*
X3871214Y2669286D01*
X3880256Y2679547D01*
X3887876Y2690926D01*
X3893921Y2703220D01*
X3898290Y2716174D01*
X3900982Y2729585D01*
X3901897Y2743250D01*
X3900982Y2756916D01*
X3898290Y2770327D01*
X3893921Y2783281D01*
X3887876Y2795574D01*
X3880256Y2806954D01*
X3871214Y2817215D01*
X3860952Y2826258D01*
X3849725Y2833725D01*
X3848201Y2834995D01*
X3665677Y3017520D01*
X3655517Y3026410D01*
X3644544Y3033776D01*
X3632708Y3039618D01*
X3620211Y3043834D01*
X3607257Y3046425D01*
X3593795Y3047288D01*
X1105255Y3047288D01*
X1091742Y3046425D01*
X1078788Y3043834D01*
X1066292Y3039618D01*
X1054455Y3033776D01*
X1043482Y3026410D01*
X1033322Y3017520D01*
X957580Y2941777D01*
X948639Y2931617D01*
X941324Y2920644D01*
X935482Y2908808D01*
X931265Y2896311D01*
X928674Y2883357D01*
X927811Y2869844D01*
X927811Y2845308D01*
X926998Y2841396D01*
X924814Y2838094D01*
X921512Y2835910D01*
X917651Y2835148D01*
X864666Y2835148D01*
X858367Y2834436D01*
X852881Y2832506D01*
X848004Y2829458D01*
X843889Y2825343D01*
X840841Y2820466D01*
X838911Y2814980D01*
X838200Y2808681D01*
X838200Y2626918D01*
X838911Y2620619D01*
X840841Y2615133D01*
X843889Y2610256D01*
X848004Y2606141D01*
X852881Y2603042D01*
X858367Y2601163D01*
X860755Y2600909D01*
X864717Y2599588D01*
X867867Y2596743D01*
X869543Y2592882D01*
X869543Y2588666D01*
X867867Y2584856D01*
X864717Y2582011D01*
X860755Y2580690D01*
X858367Y2580436D01*
X852881Y2578506D01*
X848004Y2575458D01*
X843889Y2571343D01*
X840841Y2566466D01*
X838911Y2560980D01*
X838200Y2554681D01*
X838200Y2515870D01*
X940053Y2515870D01*
X940053Y2590292D01*
X940816Y2594152D01*
X943051Y2597454D01*
X946353Y2599690D01*
X950214Y2600452D01*
X1107186Y2600452D01*
X1111097Y2599690D01*
X1114399Y2597454D01*
X1116584Y2594152D01*
X1117346Y2590292D01*
X1117346Y2515870D01*
X1219200Y2515870D01*
X1219200Y2554681D01*
X1218488Y2560980D01*
X1216609Y2566466D01*
X1213510Y2571343D01*
X1209395Y2575458D01*
X1204518Y2578506D01*
X1199032Y2580436D01*
X1196695Y2580690D01*
X1192682Y2582011D01*
X1189583Y2584856D01*
X1187856Y2588666D01*
X1187856Y2592882D01*
X1189583Y2596743D01*
X1192682Y2599588D01*
X1196695Y2600909D01*
X1199032Y2601163D01*
X1204518Y2603042D01*
X1209395Y2606141D01*
X1213510Y2610256D01*
X1214729Y2612186D01*
X1217015Y2614726D01*
X1219962Y2616352D01*
X1223314Y2616962D01*
X1846224Y2616962D01*
X1850136Y2616149D01*
X1853438Y2613964D01*
X2254453Y2212949D01*
X2256637Y2209647D01*
X2257450Y2205736D01*
X2257450Y-505256D01*
X2256383Y-513892D01*
X2256383Y-527507D01*
X2258161Y-541020D01*
X2261768Y-554177D01*
X2267102Y-566724D01*
X2274062Y-578459D01*
X2282494Y-589178D01*
X2289505Y-595934D01*
X2291791Y-599287D01*
X2292604Y-603250D01*
X2292604Y-1354328D01*
X2291740Y-1358392D01*
X2289302Y-1361795D01*
X2285695Y-1363929D01*
X2281529Y-1364437D01*
X2277516Y-1363218D01*
X2266340Y-1357071D01*
X2266340Y-1403959D01*
X2282444Y-1403959D01*
X2286304Y-1404721D01*
X2289606Y-1406956D01*
X2291791Y-1410208D01*
X2292604Y-1414119D01*
X2292604Y-1447444D01*
X2293467Y-1460957D01*
X2296058Y-1473911D01*
X2297531Y-1478229D01*
X2298039Y-1482039D01*
X2297125Y-1485747D01*
X2294890Y-1488846D01*
X2291638Y-1490929D01*
X2287879Y-1491640D01*
X2266340Y-1491640D01*
X2266340Y-1538579D01*
X2276805Y-1532839D01*
X2287625Y-1524863D01*
X2297328Y-1515465D01*
X2299970Y-1512112D01*
X2303373Y-1509369D01*
X2307590Y-1508252D01*
X2311908Y-1509064D01*
X2315464Y-1511604D01*
X2323338Y-1520342D01*
X2333650Y-1529029D01*
X2345080Y-1536293D01*
X2355088Y-1541119D01*
X2367584Y-1545336D01*
X2380488Y-1547876D01*
X2383231Y-1548180D01*
X2393645Y-1548688D01*
X2396693Y-1548638D01*
X2406802Y-1547825D01*
X2410155Y-1547317D01*
X2419756Y-1545234D01*
X2423261Y-1544218D01*
X2432253Y-1540967D01*
X2435860Y-1539392D01*
X2444038Y-1535125D01*
X2447696Y-1532890D01*
X2455011Y-1527810D01*
X2458567Y-1524914D01*
X2464917Y-1519072D01*
X2468270Y-1515567D01*
X2471216Y-1512011D01*
X2474620Y-1509369D01*
X2478836Y-1508353D01*
X2483053Y-1509166D01*
X2486558Y-1511706D01*
X2494381Y-1520342D01*
X2504643Y-1529029D01*
X2516022Y-1536293D01*
X2520645Y-1538427D01*
X2520645Y-1491640D01*
X2499258Y-1491640D01*
X2495550Y-1490980D01*
X2492349Y-1488948D01*
X2490114Y-1485900D01*
X2489149Y-1482293D01*
X2489555Y-1478534D01*
X2490978Y-1473911D01*
X2492349Y-1467916D01*
X2493518Y-1460957D01*
X2494178Y-1454556D01*
X2494381Y-1447647D01*
X2494381Y-1414119D01*
X2495194Y-1410208D01*
X2497378Y-1406956D01*
X2500680Y-1404721D01*
X2504541Y-1403959D01*
X2520645Y-1403959D01*
X2520645Y-1357172D01*
X2516022Y-1359357D01*
X2510028Y-1363167D01*
X2505964Y-1364640D01*
X2501696Y-1364335D01*
X2497886Y-1362252D01*
X2495296Y-1358798D01*
X2494381Y-1354582D01*
X2494381Y-630631D01*
X2494991Y-627227D01*
X2496718Y-624179D01*
X2499360Y-621944D01*
X2502560Y-620674D01*
X2515311Y-618134D01*
X2527808Y-613918D01*
X2539644Y-608076D01*
X2550617Y-600760D01*
X2560828Y-591820D01*
X2718511Y-434085D01*
X2721813Y-431901D01*
X2725724Y-431139D01*
X3415944Y-431139D01*
X3419094Y-431596D01*
X3425596Y-433730D01*
X3439871Y-436473D01*
X3454400Y-437388D01*
X3468928Y-436473D01*
X3483203Y-433730D01*
X3497072Y-429209D01*
X3500983Y-427380D01*
X3504996Y-426415D01*
X3509060Y-427126D01*
X3512515Y-429412D01*
X3629914Y-546811D01*
X3632149Y-550113D01*
X3632911Y-554024D01*
X3632911Y-1396085D01*
X3632403Y-1399235D01*
X3630980Y-1402080D01*
X3628694Y-1404315D01*
X3621836Y-1409293D01*
X3611219Y-1419301D01*
X3601974Y-1430477D01*
X3594150Y-1442770D01*
X3587953Y-1455928D01*
X3583482Y-1469796D01*
X3580739Y-1484071D01*
X3579825Y-1498600D01*
X3580739Y-1513128D01*
X3583482Y-1527403D01*
X3587953Y-1541272D01*
X3594150Y-1554429D01*
X3601974Y-1566722D01*
X3611219Y-1577949D01*
X3621836Y-1587906D01*
X3633622Y-1596440D01*
X3646373Y-1603451D01*
X3659886Y-1608836D01*
X3674008Y-1612442D01*
G37*
G36*
X3239058Y-1602384D02*
G01*
X3249828Y-1596440D01*
X3261563Y-1587906D01*
X3272180Y-1577949D01*
X3281476Y-1566722D01*
X3289249Y-1554429D01*
X3291382Y-1549958D01*
X3239058Y-1549958D01*
G37*
G36*
X3136341Y-1602384D02*
G01*
X3136341Y-1549958D01*
X3084068Y-1549958D01*
X3086150Y-1554429D01*
X3093974Y-1566722D01*
X3103219Y-1577949D01*
X3113836Y-1587906D01*
X3125622Y-1596440D01*
G37*
G36*
X1221943Y-1546301D02*
G01*
X1233220Y-1540103D01*
X1246581Y-1530604D01*
X1258773Y-1519732D01*
X1269644Y-1507490D01*
X1279144Y-1494180D01*
X1285341Y-1482902D01*
X1221943Y-1482902D01*
G37*
G36*
X1089253Y-1546301D02*
G01*
X1089253Y-1482902D01*
X1025855Y-1482902D01*
X1032052Y-1494180D01*
X1041552Y-1507490D01*
X1052423Y-1519732D01*
X1064615Y-1530604D01*
X1077976Y-1540103D01*
G37*
G36*
X2608376Y-1538579D02*
G01*
X2618790Y-1532839D01*
X2629662Y-1524863D01*
X2639314Y-1515465D01*
X2647696Y-1504899D01*
X2654554Y-1493316D01*
X2655265Y-1491640D01*
X2608376Y-1491640D01*
G37*
G36*
X3084068Y-1447241D02*
G01*
X3136341Y-1447241D01*
X3136341Y-1394866D01*
X3125622Y-1400759D01*
X3113836Y-1409293D01*
X3103219Y-1419301D01*
X3093974Y-1430477D01*
X3086150Y-1442770D01*
G37*
G36*
X3239058Y-1447241D02*
G01*
X3291382Y-1447241D01*
X3289249Y-1442770D01*
X3281476Y-1430477D01*
X3272180Y-1419301D01*
X3261563Y-1409293D01*
X3249828Y-1400759D01*
X3239058Y-1394866D01*
G37*
G36*
X2608376Y-1403959D02*
G01*
X2655265Y-1403959D01*
X2654554Y-1402283D01*
X2647696Y-1390700D01*
X2639314Y-1380134D01*
X2629662Y-1370787D01*
X2618790Y-1362760D01*
X2608376Y-1357071D01*
G37*
G36*
X1221943Y-1350213D02*
G01*
X1285341Y-1350213D01*
X1279144Y-1338935D01*
X1269644Y-1325575D01*
X1258773Y-1313383D01*
X1246581Y-1302512D01*
X1233220Y-1293012D01*
X1221943Y-1286814D01*
G37*
G36*
X1025855Y-1350213D02*
G01*
X1089253Y-1350213D01*
X1089253Y-1286814D01*
X1077976Y-1293012D01*
X1064615Y-1302512D01*
X1052423Y-1313383D01*
X1041552Y-1325575D01*
X1032052Y-1338935D01*
G37*
G36*
X525170Y-1187145D02*
G01*
X525170Y-1138580D01*
X476554Y-1138580D01*
X479806Y-1145133D01*
X487527Y-1156665D01*
X496620Y-1167079D01*
X507034Y-1176223D01*
X518566Y-1183894D01*
G37*
G36*
X617880Y-1187145D02*
G01*
X624433Y-1183894D01*
X635965Y-1176223D01*
X646379Y-1167079D01*
X655523Y-1156665D01*
X663194Y-1145133D01*
X666445Y-1138580D01*
X617880Y-1138580D01*
G37*
G36*
X617880Y-1045870D02*
G01*
X666445Y-1045870D01*
X663194Y-1039266D01*
X655523Y-1027734D01*
X646379Y-1017320D01*
X635965Y-1008227D01*
X624433Y-1000506D01*
X617880Y-997254D01*
G37*
G36*
X476554Y-1045870D02*
G01*
X525170Y-1045870D01*
X525170Y-997254D01*
X518566Y-1000506D01*
X507034Y-1008227D01*
X496620Y-1017320D01*
X487527Y-1027734D01*
X479806Y-1039266D01*
G37*
G36*
X3505758Y-925118D02*
G01*
X3510229Y-923036D01*
X3522522Y-915212D01*
X3533749Y-905967D01*
X3543706Y-895350D01*
X3552240Y-883564D01*
X3558184Y-872845D01*
X3505758Y-872845D01*
G37*
G36*
X3403041Y-925118D02*
G01*
X3403041Y-872845D01*
X3350666Y-872845D01*
X3356559Y-883564D01*
X3365093Y-895350D01*
X3375101Y-905967D01*
X3386277Y-915212D01*
X3398570Y-923036D01*
G37*
G36*
X3505758Y-770128D02*
G01*
X3558184Y-770128D01*
X3552240Y-759409D01*
X3543706Y-747623D01*
X3533749Y-737006D01*
X3522522Y-727710D01*
X3510229Y-719937D01*
X3505758Y-717804D01*
G37*
G36*
X3350666Y-770128D02*
G01*
X3403041Y-770128D01*
X3403041Y-717804D01*
X3398570Y-719937D01*
X3386277Y-727710D01*
X3375101Y-737006D01*
X3365093Y-747623D01*
X3356559Y-759409D01*
G37*
G36*
X525170Y-387045D02*
G01*
X525170Y-338480D01*
X476554Y-338480D01*
X479806Y-345033D01*
X487527Y-356565D01*
X496620Y-366979D01*
X507034Y-376123D01*
X518566Y-383794D01*
G37*
G36*
X617880Y-387045D02*
G01*
X624433Y-383794D01*
X635965Y-376123D01*
X646379Y-366979D01*
X655523Y-356565D01*
X663194Y-345033D01*
X666445Y-338480D01*
X617880Y-338480D01*
G37*
G36*
X617880Y-245770D02*
G01*
X666445Y-245770D01*
X663194Y-239166D01*
X655523Y-227634D01*
X646379Y-217220D01*
X635965Y-208127D01*
X624433Y-200406D01*
X617880Y-197154D01*
G37*
G36*
X476554Y-245770D02*
G01*
X525170Y-245770D01*
X525170Y-197154D01*
X518566Y-200406D01*
X507034Y-208127D01*
X496620Y-217220D01*
X487527Y-227634D01*
X479806Y-239166D01*
G37*
G36*
X349351Y608685D02*
G01*
X349351Y656031D01*
X302006Y656031D01*
X307746Y645566D01*
X315874Y634593D01*
X325323Y624789D01*
X336042Y616305D01*
X347776Y609396D01*
G37*
G36*
X438251Y608685D02*
G01*
X439826Y609396D01*
X451561Y616305D01*
X462280Y624789D01*
X471779Y634593D01*
X479856Y645566D01*
X485597Y656031D01*
X438251Y656031D01*
G37*
G36*
X438251Y744931D02*
G01*
X485495Y744931D01*
X483311Y749554D01*
X475996Y761034D01*
X467207Y771448D01*
X457098Y780592D01*
X445820Y788314D01*
X438251Y792124D01*
G37*
G36*
X302158Y744931D02*
G01*
X349351Y744931D01*
X349351Y792124D01*
X341782Y788314D01*
X330555Y780592D01*
X320446Y771448D01*
X311607Y761034D01*
X304292Y749554D01*
G37*
G36*
X864666Y822452D02*
G01*
X1192733Y822452D01*
X1199032Y823163D01*
X1204518Y825042D01*
X1209395Y828141D01*
X1213510Y832256D01*
X1216609Y837133D01*
X1218488Y842619D01*
X1219200Y848918D01*
X1219200Y1030681D01*
X1218488Y1036980D01*
X1216609Y1042466D01*
X1213510Y1047343D01*
X1209395Y1051458D01*
X1204518Y1054506D01*
X1199032Y1056436D01*
X1196695Y1056690D01*
X1192682Y1058011D01*
X1189583Y1060856D01*
X1187856Y1064666D01*
X1187856Y1068882D01*
X1189583Y1072743D01*
X1192682Y1075588D01*
X1196695Y1076909D01*
X1199032Y1077163D01*
X1204518Y1079042D01*
X1209395Y1082141D01*
X1213510Y1086256D01*
X1216609Y1091133D01*
X1218488Y1096619D01*
X1219200Y1102918D01*
X1219200Y1284681D01*
X1218488Y1290980D01*
X1216609Y1296466D01*
X1213510Y1301343D01*
X1209395Y1305458D01*
X1204518Y1308506D01*
X1199032Y1310436D01*
X1196695Y1310690D01*
X1192682Y1312011D01*
X1189583Y1314856D01*
X1187856Y1318666D01*
X1187856Y1322882D01*
X1189583Y1326743D01*
X1192682Y1329588D01*
X1196695Y1330909D01*
X1199032Y1331163D01*
X1204518Y1333042D01*
X1209395Y1336141D01*
X1213510Y1340256D01*
X1216609Y1345133D01*
X1218488Y1350619D01*
X1219200Y1356918D01*
X1219200Y1538681D01*
X1218488Y1544980D01*
X1216609Y1550466D01*
X1213510Y1555343D01*
X1209395Y1559458D01*
X1204518Y1562506D01*
X1199032Y1564436D01*
X1196695Y1564690D01*
X1192682Y1566011D01*
X1189583Y1568856D01*
X1187856Y1572666D01*
X1187856Y1576882D01*
X1189583Y1580743D01*
X1192682Y1583588D01*
X1196695Y1584909D01*
X1199032Y1585163D01*
X1204518Y1587042D01*
X1209395Y1590141D01*
X1213510Y1594256D01*
X1216609Y1599133D01*
X1218488Y1604619D01*
X1219200Y1610918D01*
X1219200Y1792681D01*
X1218488Y1798980D01*
X1216609Y1804466D01*
X1213510Y1809343D01*
X1209395Y1813458D01*
X1204518Y1816506D01*
X1199032Y1818436D01*
X1196695Y1818690D01*
X1192682Y1820011D01*
X1189583Y1822856D01*
X1187856Y1826666D01*
X1187856Y1830882D01*
X1189583Y1834743D01*
X1192682Y1837588D01*
X1196695Y1838909D01*
X1199032Y1839163D01*
X1204518Y1841042D01*
X1209395Y1844141D01*
X1213510Y1848256D01*
X1216609Y1853133D01*
X1218488Y1858619D01*
X1219200Y1864918D01*
X1219200Y2046681D01*
X1218488Y2052980D01*
X1216609Y2058466D01*
X1213510Y2063343D01*
X1209395Y2067458D01*
X1204518Y2070506D01*
X1199032Y2072436D01*
X1196695Y2072690D01*
X1192682Y2074011D01*
X1189583Y2076856D01*
X1187856Y2080666D01*
X1187856Y2084882D01*
X1189583Y2088743D01*
X1192682Y2091588D01*
X1196695Y2092909D01*
X1199032Y2093163D01*
X1204518Y2095042D01*
X1209395Y2098141D01*
X1213510Y2102256D01*
X1216609Y2107133D01*
X1218488Y2112619D01*
X1219200Y2118918D01*
X1219200Y2300681D01*
X1218488Y2306980D01*
X1216609Y2312466D01*
X1213510Y2317343D01*
X1209395Y2321458D01*
X1204518Y2324506D01*
X1199032Y2326436D01*
X1196695Y2326690D01*
X1192682Y2328011D01*
X1189583Y2330856D01*
X1187856Y2334666D01*
X1187856Y2338882D01*
X1189583Y2342743D01*
X1192682Y2345588D01*
X1196695Y2346909D01*
X1199032Y2347163D01*
X1204518Y2349042D01*
X1209395Y2352141D01*
X1213510Y2356256D01*
X1216609Y2361133D01*
X1218488Y2366619D01*
X1219200Y2372918D01*
X1219200Y2411730D01*
X1117346Y2411730D01*
X1117346Y2337308D01*
X1116584Y2333396D01*
X1114399Y2330094D01*
X1111097Y2327910D01*
X1107186Y2327148D01*
X950214Y2327148D01*
X946353Y2327910D01*
X943051Y2330094D01*
X940816Y2333396D01*
X940053Y2337308D01*
X940053Y2411730D01*
X838200Y2411730D01*
X838200Y2372918D01*
X838911Y2366619D01*
X840841Y2361133D01*
X843889Y2356256D01*
X848004Y2352141D01*
X852881Y2349042D01*
X858367Y2347163D01*
X860755Y2346909D01*
X864717Y2345588D01*
X867867Y2342743D01*
X869543Y2338882D01*
X869543Y2334666D01*
X867867Y2330856D01*
X864717Y2328011D01*
X860755Y2326690D01*
X858367Y2326436D01*
X852881Y2324506D01*
X848004Y2321458D01*
X843889Y2317343D01*
X840841Y2312466D01*
X838911Y2306980D01*
X838200Y2300681D01*
X838200Y2118918D01*
X838911Y2112619D01*
X840841Y2107133D01*
X843889Y2102256D01*
X848004Y2098141D01*
X852881Y2095042D01*
X858367Y2093163D01*
X860755Y2092909D01*
X864717Y2091588D01*
X867867Y2088743D01*
X869543Y2084882D01*
X869543Y2080666D01*
X867867Y2076856D01*
X864717Y2074011D01*
X860755Y2072690D01*
X858367Y2072436D01*
X852881Y2070506D01*
X848004Y2067458D01*
X843889Y2063343D01*
X840841Y2058466D01*
X838911Y2052980D01*
X838200Y2046681D01*
X838200Y1864918D01*
X838911Y1858619D01*
X840841Y1853133D01*
X843889Y1848256D01*
X848004Y1844141D01*
X852881Y1841042D01*
X858367Y1839163D01*
X860755Y1838909D01*
X864717Y1837588D01*
X867867Y1834743D01*
X869543Y1830882D01*
X869543Y1826666D01*
X867867Y1822856D01*
X864717Y1820011D01*
X860755Y1818690D01*
X858367Y1818436D01*
X852881Y1816506D01*
X848004Y1813458D01*
X843889Y1809343D01*
X840841Y1804466D01*
X838911Y1798980D01*
X838200Y1792681D01*
X838200Y1787906D01*
X837437Y1784045D01*
X835253Y1780743D01*
X831951Y1778507D01*
X828040Y1777746D01*
X660704Y1777746D01*
X649020Y1776882D01*
X637997Y1774342D01*
X627430Y1770227D01*
X617626Y1764538D01*
X607669Y1756511D01*
X341477Y1502867D01*
X338124Y1499463D01*
X333705Y1494282D01*
X331012Y1490624D01*
X327456Y1484833D01*
X325374Y1480769D01*
X322681Y1474520D01*
X321208Y1470202D01*
X319481Y1463649D01*
X318668Y1459179D01*
X317957Y1452372D01*
X317804Y1447647D01*
X317804Y1272082D01*
X317195Y1268577D01*
X315417Y1265529D01*
X311607Y1261059D01*
X304292Y1249527D01*
X298551Y1237183D01*
X294487Y1224178D01*
X292252Y1210716D01*
X291795Y1197051D01*
X293166Y1183487D01*
X296316Y1170228D01*
X301193Y1157528D01*
X307746Y1145540D01*
X315874Y1134567D01*
X325323Y1124762D01*
X336042Y1116330D01*
X347776Y1109370D01*
X360324Y1104036D01*
X373481Y1100429D01*
X386994Y1098651D01*
X400608Y1098651D01*
X414121Y1100429D01*
X427278Y1104036D01*
X439826Y1109370D01*
X451561Y1116330D01*
X462280Y1124762D01*
X471779Y1134567D01*
X479856Y1145540D01*
X486409Y1157528D01*
X491286Y1170228D01*
X494487Y1183487D01*
X495858Y1197051D01*
X495401Y1210716D01*
X493115Y1224178D01*
X489051Y1237183D01*
X483311Y1249527D01*
X475996Y1261059D01*
X472033Y1265732D01*
X470255Y1268780D01*
X469646Y1272286D01*
X469595Y1410919D01*
X470458Y1414932D01*
X472744Y1418285D01*
X687781Y1623161D01*
X691032Y1625193D01*
X694791Y1625955D01*
X828040Y1625955D01*
X831951Y1625193D01*
X835253Y1622958D01*
X837437Y1619656D01*
X838200Y1615795D01*
X838200Y1610918D01*
X838911Y1604619D01*
X840841Y1599133D01*
X843889Y1594256D01*
X848004Y1590141D01*
X852881Y1587042D01*
X858367Y1585163D01*
X860755Y1584909D01*
X864717Y1583588D01*
X867867Y1580743D01*
X869543Y1576882D01*
X869543Y1572666D01*
X867867Y1568856D01*
X864717Y1566011D01*
X860755Y1564690D01*
X858367Y1564436D01*
X852881Y1562506D01*
X848004Y1559458D01*
X843889Y1555343D01*
X840841Y1550466D01*
X838911Y1544980D01*
X838200Y1538681D01*
X838200Y1533906D01*
X837437Y1529994D01*
X835253Y1526743D01*
X831951Y1524508D01*
X828040Y1523746D01*
X746607Y1523695D01*
X737768Y1522882D01*
X735330Y1522476D01*
X726694Y1520342D01*
X724357Y1519580D01*
X716178Y1516176D01*
X713943Y1515059D01*
X706323Y1510487D01*
X697484Y1503375D01*
X592124Y1398016D01*
X585063Y1389176D01*
X580440Y1381556D01*
X579323Y1379372D01*
X575919Y1371142D01*
X575157Y1368806D01*
X573024Y1360170D01*
X572617Y1357731D01*
X571804Y1348892D01*
X571754Y1089812D01*
X570992Y1085900D01*
X568756Y1082598D01*
X515569Y1029411D01*
X512267Y1027176D01*
X508355Y1026414D01*
X465632Y1026414D01*
X461975Y1027125D01*
X458774Y1029055D01*
X457098Y1030579D01*
X445820Y1038301D01*
X433679Y1044448D01*
X420776Y1048969D01*
X407416Y1051661D01*
X393801Y1052576D01*
X380187Y1051661D01*
X366826Y1048969D01*
X353974Y1044448D01*
X341782Y1038301D01*
X330555Y1030579D01*
X320446Y1021435D01*
X311607Y1011021D01*
X304292Y999540D01*
X298551Y987196D01*
X294487Y974140D01*
X292252Y960729D01*
X291795Y947064D01*
X293166Y933500D01*
X296316Y920242D01*
X301193Y907542D01*
X307746Y895553D01*
X315874Y884580D01*
X325323Y874776D01*
X336042Y866343D01*
X347776Y859383D01*
X360324Y854049D01*
X373481Y850442D01*
X386994Y848614D01*
X400608Y848614D01*
X414121Y850442D01*
X427278Y854049D01*
X439826Y859383D01*
X451561Y866343D01*
X459282Y872439D01*
X462280Y874064D01*
X465582Y874623D01*
X546658Y874674D01*
X555498Y875487D01*
X557936Y875893D01*
X566572Y878027D01*
X568909Y878789D01*
X577138Y882192D01*
X579323Y883310D01*
X586943Y887933D01*
X595782Y894994D01*
X703173Y1002385D01*
X710234Y1011224D01*
X714857Y1018844D01*
X715975Y1021029D01*
X719378Y1029258D01*
X720140Y1031595D01*
X722274Y1040231D01*
X722680Y1042669D01*
X723493Y1051509D01*
X723544Y1310589D01*
X724306Y1314500D01*
X726541Y1317802D01*
X777697Y1368958D01*
X780999Y1371142D01*
X784910Y1371955D01*
X828040Y1371904D01*
X831951Y1371142D01*
X835253Y1368958D01*
X837437Y1365656D01*
X838200Y1361744D01*
X838200Y1356918D01*
X838911Y1350619D01*
X840841Y1345133D01*
X843889Y1340256D01*
X848004Y1336141D01*
X852881Y1333042D01*
X858367Y1331163D01*
X860755Y1330909D01*
X864717Y1329588D01*
X867867Y1326743D01*
X869543Y1322882D01*
X869543Y1318666D01*
X867867Y1314856D01*
X864717Y1312011D01*
X860755Y1310690D01*
X858367Y1310436D01*
X852881Y1308506D01*
X848004Y1305458D01*
X843889Y1301343D01*
X840841Y1296466D01*
X838911Y1290980D01*
X838200Y1284681D01*
X838200Y1102918D01*
X838911Y1096619D01*
X840841Y1091133D01*
X843889Y1086256D01*
X848004Y1082141D01*
X852881Y1079042D01*
X858367Y1077163D01*
X860755Y1076909D01*
X864717Y1075588D01*
X867867Y1072743D01*
X869543Y1068882D01*
X869543Y1064666D01*
X867867Y1060856D01*
X864717Y1058011D01*
X860755Y1056690D01*
X858367Y1056436D01*
X852881Y1054506D01*
X848004Y1051458D01*
X843889Y1047343D01*
X840841Y1042466D01*
X838911Y1036980D01*
X838200Y1030681D01*
X838200Y848918D01*
X838911Y842619D01*
X840841Y837133D01*
X843889Y832256D01*
X848004Y828141D01*
X852881Y825042D01*
X858367Y823163D01*
G37*
G36*
X3842969Y2395372D02*
G01*
X3849573Y2398623D01*
X3860952Y2406243D01*
X3871214Y2415286D01*
X3880256Y2425547D01*
X3887876Y2436926D01*
X3891127Y2443530D01*
X3842969Y2443530D01*
G37*
G36*
X3703370Y2534970D02*
G01*
X3751529Y2534970D01*
X3751529Y2583129D01*
X3744925Y2579878D01*
X3733546Y2572258D01*
X3723284Y2563215D01*
X3714242Y2552954D01*
X3706622Y2541574D01*
G37*
G36*
X3842969Y2534970D02*
G01*
X3891127Y2534970D01*
X3887876Y2541574D01*
X3880256Y2552954D01*
X3871214Y2563215D01*
X3860952Y2572258D01*
X3849573Y2579878D01*
X3842969Y2583129D01*
G37*
G36*
X3784600Y3301492D02*
G01*
X3799992Y3302457D01*
X3815130Y3305200D01*
X3829812Y3309772D01*
X3843832Y3316122D01*
X3857040Y3324098D01*
X3869131Y3333597D01*
X3880002Y3344468D01*
X3889501Y3356559D01*
X3897477Y3369767D01*
X3903827Y3383787D01*
X3908399Y3398469D01*
X3911142Y3413607D01*
X3912108Y3429000D01*
X3911142Y3444392D01*
X3908399Y3459530D01*
X3903827Y3474212D01*
X3897477Y3488232D01*
X3889501Y3501440D01*
X3880002Y3513531D01*
X3869131Y3524402D01*
X3857040Y3533901D01*
X3843832Y3541877D01*
X3829812Y3548227D01*
X3815130Y3552799D01*
X3799992Y3555542D01*
X3784600Y3556508D01*
X3769207Y3555542D01*
X3754069Y3552799D01*
X3739387Y3548227D01*
X3725367Y3541877D01*
X3712159Y3533901D01*
X3700068Y3524402D01*
X3689197Y3513531D01*
X3679698Y3501440D01*
X3671722Y3488232D01*
X3665372Y3474212D01*
X3660800Y3459530D01*
X3658057Y3444392D01*
X3657092Y3429000D01*
X3658057Y3413607D01*
X3660800Y3398469D01*
X3665372Y3383787D01*
X3671722Y3369767D01*
X3679698Y3356559D01*
X3689197Y3344468D01*
X3700068Y3333597D01*
X3712159Y3324098D01*
X3725367Y3316122D01*
X3739387Y3309772D01*
X3754069Y3305200D01*
X3769207Y3302457D01*
G37*
G36*
X-25400Y3314192D02*
G01*
X-10007Y3315157D01*
X5130Y3317900D01*
X19812Y3322472D01*
X33832Y3328822D01*
X47040Y3336798D01*
X59131Y3346297D01*
X70002Y3357168D01*
X79502Y3369259D01*
X87477Y3382467D01*
X93827Y3396487D01*
X98399Y3411169D01*
X101142Y3426307D01*
X102108Y3441700D01*
X101142Y3457092D01*
X98399Y3472230D01*
X93827Y3486912D01*
X87477Y3500932D01*
X79502Y3514140D01*
X70002Y3526231D01*
X59131Y3537102D01*
X47040Y3546601D01*
X33832Y3554577D01*
X19812Y3560927D01*
X5130Y3565499D01*
X-10007Y3568242D01*
X-25400Y3569208D01*
X-40792Y3568242D01*
X-55930Y3565499D01*
X-70612Y3560927D01*
X-84632Y3554577D01*
X-97840Y3546601D01*
X-109931Y3537102D01*
X-120802Y3526231D01*
X-130302Y3514140D01*
X-138277Y3500932D01*
X-144627Y3486912D01*
X-149199Y3472230D01*
X-151942Y3457092D01*
X-152908Y3441700D01*
X-151942Y3426307D01*
X-149199Y3411169D01*
X-144627Y3396487D01*
X-138277Y3382467D01*
X-130302Y3369259D01*
X-120802Y3357168D01*
X-109931Y3346297D01*
X-97840Y3336798D01*
X-84632Y3328822D01*
X-70612Y3322472D01*
X-55930Y3317900D01*
X-40792Y3315157D01*
G37*

%LPD*%
D10*
X63441Y-1092141D02*
G01*
X63441Y-1257241D01*
X546041Y-1739841D01*
X1435041Y-1739841D01*
X1708599Y-1466283D01*
D11*
X3314641Y2209858D02*
G01*
X3060641Y2209858D01*
X2844741Y1993958D01*
X2844741Y876358D01*
X3086041Y635058D01*
X3873441Y635058D01*
X3949641Y711258D01*
X3949641Y1574858D01*
X3797241Y1727258D01*
X393712Y700498D02*
G01*
X290101Y700498D01*
X152400Y838200D01*
X152400Y2273300D01*
X355600Y2476500D01*
X368292Y2463807D01*
X1028692Y2463807D01*
X571492Y-292092D02*
G01*
X571492Y-1092192D01*
X1028641Y2463858D02*
G01*
X1549341Y2463858D01*
X1993841Y2019358D01*
X1993841Y-12641D01*
X2133541Y-152341D01*
X2108141Y-761941D01*
X2222441Y-876241D01*
X2222441Y-1447741D01*
D12*
X393712Y700498D02*
G01*
X556801Y700498D01*
X609600Y647700D01*
X609600Y-253984D01*
X571492Y-292092D01*
D11*
X2051499Y-1447741D02*
G01*
X2051499Y-1073599D01*
X1858205Y-880305D01*
X1858205Y-519625D01*
X1858205Y-520641D02*
G01*
X1858205Y-308805D01*
X1605983Y-56583D01*
X1155641Y-56583D01*
D12*
X1028694Y2717805D02*
G01*
X1028694Y2870200D01*
X1104894Y2946400D01*
X3594100Y2946400D01*
X3797292Y2743207D01*
X3454400Y-321500D02*
G01*
X3547300Y-321500D01*
X3733800Y-508000D01*
X3733800Y-1460500D01*
X3695700Y-1498600D01*
X2358204Y-520692D02*
G01*
X2489207Y-520692D01*
X2679700Y-330200D01*
X3445697Y-330200D01*
X3454392Y-321505D01*
X2358214Y-520700D02*
G01*
X2393485Y-555972D01*
X2393485Y-1447792D01*
X1028641Y2717858D02*
G01*
X1892241Y2717858D01*
X2358331Y2251768D01*
X2358331Y-520641D01*
X1880481Y-1447792D02*
G01*
X1708599Y-1447792D01*
D10*
X63492Y-292092D02*
G01*
X63492Y-1092192D01*
X393712Y450512D02*
G01*
X209212Y450512D01*
X76200Y317500D01*
X76200Y-279384D01*
X63492Y-292092D01*
D11*
X2222441Y-1447741D02*
G01*
X2222441Y-1587441D01*
X2387600Y-1676400D01*
X2565400Y-1612900D01*
X2564579Y-1447741D01*
X3797241Y2489258D02*
G01*
X3975041Y2667058D01*
X3975041Y2870258D01*
X3670241Y3175058D01*
X914341Y3175058D01*
X673041Y2933758D01*
X673041Y2540058D01*
X749241Y2463858D01*
X1028641Y2463858D01*
X571494Y-1092194D02*
G01*
X831260Y-1092194D01*
X1155692Y-1416626D01*
X3797292Y1981207D02*
G01*
X3340097Y1981207D01*
X3314694Y1955805D01*
X3314694Y1701805D02*
G01*
X3568694Y1701805D01*
X3797292Y1473207D01*
X3797292Y2235207D02*
G01*
X3784592Y2235207D01*
X3555994Y2463805D01*
X3314694Y2463805D01*
X3454400Y-821499D02*
G01*
X3318700Y-821499D01*
X3149600Y-990600D01*
X3149600Y-1460500D01*
X3187700Y-1498600D01*
X2564503Y-1447792D02*
G01*
X3136887Y-1447792D01*
X3187694Y-1498600D01*
X1028641Y1701858D02*
G01*
X660341Y1701858D01*
X393700Y1447800D01*
X393717Y1200487D01*
X393641Y950526D02*
G01*
X544009Y950526D01*
X647641Y1054158D01*
X647641Y1346258D01*
X749241Y1447858D01*
X1028692Y1447807D01*
D13*
G01*
X1155590Y-1416550D03*
G01*
X1155590Y-56532D03*
D14*
G01*
X3797241Y965258D03*
D15*
G01*
X3797241Y1219258D03*
G01*
X3797241Y1473258D03*
G01*
X3797241Y1727258D03*
G01*
X3797241Y1981258D03*
G01*
X3797241Y2235258D03*
G01*
X3797241Y2489258D03*
G01*
X3797241Y2743258D03*
D16*
G01*
X393819Y450502D03*
D17*
G01*
X393819Y700488D03*
G01*
X393819Y950501D03*
G01*
X393819Y1200487D03*
D18*
G01*
X571492Y-292092D03*
G01*
X63492Y-292092D03*
G01*
X63492Y-1092192D03*
G01*
X571492Y-1092192D03*
D19*
G01*
X3454392Y-321505D03*
G01*
X3454392Y-821504D03*
G01*
X3695692Y-1498592D03*
G01*
X3187692Y-1498592D03*
D20*
G01*
X3314692Y939807D03*
G01*
X1028692Y2717807D03*
G01*
X1028692Y2463807D03*
G01*
X1028692Y2209807D03*
G01*
X1028692Y1955807D03*
G01*
X1028692Y1701807D03*
G01*
X1028692Y1447807D03*
G01*
X1028692Y1193807D03*
G01*
X1028692Y939807D03*
G01*
X3314692Y2717807D03*
G01*
X3314692Y2463807D03*
G01*
X3314692Y2209807D03*
G01*
X3314692Y1955807D03*
G01*
X3314692Y1701807D03*
G01*
X3314692Y1447807D03*
G01*
X3314692Y1193807D03*
D17*
G01*
X1858205Y-520692D03*
G01*
X2358204Y-520692D03*
D12*
G01*
X1880481Y-1447792D03*
G01*
X2051499Y-1447792D03*
G01*
X2222492Y-1447792D03*
G01*
X2393485Y-1447792D03*
G01*
X2564503Y-1447792D03*
M02*
