G04 Layer: TopLayer*
G04 EasyEDA v6.5.42, 2024-06-08 10:03:42*
G04 2a0a793ee1f445049542d68d0598b523,181136881d82463cbfe9aea6f2478185,10*
G04 Gerber Generator version 0.2*
G04 Scale: 100 percent, Rotated: No, Reflected: No *
G04 Dimensions in millimeters *
G04 leading zeros omitted , absolute positions ,4 integer and 5 decimal *
%FSLAX45Y45*%
%MOMM*%

%ADD10C,2.4000*%
%ADD11R,1.5748X1.5748*%
%ADD12C,1.5748*%
%ADD13R,1.5240X1.5240*%
%ADD14C,1.5240*%
%ADD15C,1.6000*%
%ADD16C,1.8000*%
%ADD17R,3.2918X1.8288*%
%ADD18C,1.5000*%

%LPD*%
D10*
G01*
X1155590Y-1416550D03*
G01*
X1155590Y-56532D03*
D11*
G01*
X3797241Y965258D03*
D12*
G01*
X3797241Y1219258D03*
G01*
X3797241Y1473258D03*
G01*
X3797241Y1727258D03*
G01*
X3797241Y1981258D03*
G01*
X3797241Y2235258D03*
G01*
X3797241Y2489258D03*
G01*
X3797241Y2743258D03*
D13*
G01*
X393819Y450502D03*
D14*
G01*
X393819Y700488D03*
G01*
X393819Y950501D03*
G01*
X393819Y1200487D03*
D15*
G01*
X571492Y-292092D03*
G01*
X63492Y-292092D03*
G01*
X63492Y-1092192D03*
G01*
X571492Y-1092192D03*
D16*
G01*
X3454392Y-321505D03*
G01*
X3454392Y-821504D03*
G01*
X3695692Y-1498592D03*
G01*
X3187692Y-1498592D03*
D17*
G01*
X3314692Y939807D03*
G01*
X1028692Y2717807D03*
G01*
X1028692Y2463807D03*
G01*
X1028692Y2209807D03*
G01*
X1028692Y1955807D03*
G01*
X1028692Y1701807D03*
G01*
X1028692Y1447807D03*
G01*
X1028692Y1193807D03*
G01*
X1028692Y939807D03*
G01*
X3314692Y2717807D03*
G01*
X3314692Y2463807D03*
G01*
X3314692Y2209807D03*
G01*
X3314692Y1955807D03*
G01*
X3314692Y1701807D03*
G01*
X3314692Y1447807D03*
G01*
X3314692Y1193807D03*
D14*
G01*
X1858205Y-520692D03*
G01*
X2358204Y-520692D03*
D18*
G01*
X1880481Y-1447792D03*
G01*
X2051499Y-1447792D03*
G01*
X2222492Y-1447792D03*
G01*
X2393485Y-1447792D03*
G01*
X2564503Y-1447792D03*
M02*
